<?xml version="1.0" encoding="UTF-8" standalone="no"?>
<svg
   width="137"
   height="29"
   viewBox="0 0 137 29"
   fill="none"
   version="1.1"
   xmlns="http://www.w3.org/2000/svg"
   xmlns:svg="http://www.w3.org/2000/svg">
<path d="M0.153499 17.9142C0.397899 17.8562 24.8152 12.0349 43.1998 3.88079C45.2449 2.97379 46.9008 2.43609 48.2956 2.18269C46.7329 3.75729 37.54 7.68269 44.882 8.37829C51.6186 9.01719 40.5214 17.0108 35.4343 19.917C22.0532 24.1597 13.3687 25.8259 13.2126 25.8555L13.3967 26.8371C13.4423 26.8284 14.2201 26.6793 15.6276 26.3679C23.0039 24.7354 47.7648 18.6221 76.1721 4.65169C80.1558 2.69249 83.4072 1.60599 86.1436 1.20279C85.3414 5.31859 76.0532 14.42 90.8867 16.7182C104.416 18.8142 77.2846 24.1361 67.1729 26.8458C65.7145 27.2367 64.6097 27.5733 64.0327 27.8377C59.5683 29.8854 111.467 28.0435 134.676 27.9502C135.433 27.9769 136.206 27.9922 137 27.9922V26.9933C116.27 26.9933 108.928 17.5136 103.028 9.89659C96.8975 1.98089 92.0551 -4.27226 75.7316 3.75529C71.9386 5.61949 68.1041 7.39819 64.2312 9.09019C60.8086 7.87219 58.7358 6.12039 56.9198 4.58269C53.5385 1.71949 51.0952 -0.349541 42.9304 3.27249C24.6028 11.4006 0.243734 17.2086 0 17.2662L0.153499 17.9142Z" fill="#FDFDFD"/>
</svg>
