<?xml version="1.0" encoding="UTF-8" standalone="no"?><svg viewBox="0 0 24 24" xmlns="http://www.w3.org/2000/svg" xmlns:xlink="http://www.w3.org/1999/xlink"><style>:root>svg{display:none}:root>svg:target{display:block}</style><svg viewBox="0 0 24 24" id="arrow" xmlns="http://www.w3.org/2000/svg"><path d="M18.717 11.064 8.037.384A1.303 1.303 0 0 0 7.108 0c-.351 0-.681.136-.928.383l-.787.787a1.315 1.315 0 0 0 0 1.857l8.969 8.968-8.979 8.978a1.304 1.304 0 0 0-.383.929c0 .351.136.681.383.928l.787.787c.247.247.577.383.928.383.352 0 .682-.136.929-.383l10.69-10.69c.248-.248.384-.58.383-.931 0-.354-.135-.685-.383-.932z"/></svg><svg viewBox="0 0 24 24" id="calendar" xmlns="http://www.w3.org/2000/svg"><path d="M6.75 0C6.33 0 6 .33 6 .75v.75H2.25A2.247 2.247 0 0 0 0 3.75v18A2.247 2.247 0 0 0 2.25 24h19.5A2.247 2.247 0 0 0 24 21.75v-18a2.247 2.247 0 0 0-2.25-2.25H18V.75c0-.42-.33-.75-.75-.75s-.75.33-.75.75v.75h-9V.75C7.5.33 7.17 0 6.75 0Zm-4.5 3H6v2.25c0 .42.33.75.75.75s.75-.33.75-.75V3h9v2.25c0 .42.33.75.75.75s.75-.33.75-.75V3h3.75c.42 0 .75.33.75.75V7.5h-21V3.75c0-.42.33-.75.75-.75ZM1.5 9h21v12.75c0 .42-.33.75-.75.75H2.25c-.42 0-.75-.33-.75-.75Z"/></svg><svg viewBox="0 0 24 24" id="group" xmlns="http://www.w3.org/2000/svg"><path d="M.762.989v4.19a.648.648 0 0 0-.498.446C.087 6.208.001 6.705 0 7.15c0 .407.078.776.245 1.091.25.479.693.766 1.116.897.427.137.859.16 1.265.162h.067c.167-.002.33-.007.484-.013v12.728a.998.998 0 0 0 1.994 0v-7.28h.373v7.28a.998.998 0 0 0 1.995 0V9.921c.054.111.101.225.143.341.228.63.419 1.664.418 3.277 0 .445-.014.934-.045 1.47a.645.645 0 0 0 1.287.076c.033-.56.049-1.073.049-1.546-.004-2.434-.392-3.78-.922-4.59-.265-.403-.575-.66-.86-.803a1.541 1.541 0 0 0-.668-.173l-.026-.001h-.377l-.2 1.55-.785-.947.543-.603H4.62l.543.603-.787.947-.198-1.55h-.377a.62.62 0 0 0-.072.005c-.285.004-.579.02-.863.027-.08.002-.161.004-.24.004-.46.005-.859-.06-1.044-.174a.48.48 0 0 1-.198-.2c-.048-.09-.093-.236-.094-.485 0-.269.058-.65.21-1.149a.644.644 0 0 0-.443-.808V3.512c.176-.283.626-.787 1.412-.32C4.597 4.463 4.727 1.5 4.727 1.5s-1.116.619-1.922-.107c-.683-.614-1.51-.266-1.748-.144v-.26Zm4.596 2.895a1.815 1.815 0 1 0 0 3.631 1.815 1.815 0 0 0 0-3.63zm15.323 1.17a1.055 1.055 0 1 0 0 2.11 1.055 1.055 0 0 0 0-2.11zm-8.163 1.74a1.055 1.055 0 1 0 0 2.109 1.055 1.055 0 0 0 0-2.11zm7.258.637-.006.001a.75.75 0 0 0-.102.007c.104.186.318.556.625 1.023.405.618.971 1.405 1.656 2.16V8.563c.028.057.056.122.084.198.132.366.242.967.242 1.905 0 .258-.008.542-.026.854a.38.38 0 0 0 .101.28.378.378 0 0 0 .274.117.374.374 0 0 0 .373-.353c.018-.299.027-.599.028-.898-.002-1.415-.227-2.197-.535-2.668a1.325 1.325 0 0 0-.502-.466.888.888 0 0 0-.394-.1h-.002l-.005-.002zm-.27.047a.982.982 0 0 0-.132.055c-.252.125-.524.398-.714.882-.08.202-.15.442-.203.73.04.03.076.067.105.108.221.304.4.57.542.808.046-.764.18-1.23.31-1.498v2.105c.068.173.117.354.12.546a.853.853 0 0 1-.12.444v3.934a.58.58 0 1 0 1.159 0v-4.231h.217v4.231a.58.58 0 1 0 1.16 0V10.86c-1.323-1.42-2.226-2.987-2.445-3.381Zm-2.768 1.108a1.054 1.054 0 1 0 .917 1.575H16.19V9.083h1.442a1.052 1.052 0 0 0-.895-.497Zm-5.126.583-.007.002a.888.888 0 0 0-.395.1c-.253.125-.524.398-.714.883-.192.486-.322 1.189-.323 2.25 0 .275.01.574.029.9a.374.374 0 0 0 .374.352h.022a.378.378 0 0 0 .353-.397c-.018-.284-.027-.57-.028-.854-.002-1.135.164-1.772.327-2.104v7.03a.581.581 0 0 0 .99.41.58.58 0 0 0 .169-.41v-4.232h.217v4.232a.58.58 0 1 0 1.16 0v-7.029a2 2 0 0 1 .082.198c.133.366.244.967.244 1.905 0 .258-.008.542-.026.854a.373.373 0 0 0 .164.33c.038-.698.142-1.258.318-1.702.074-.191.159-.347.247-.476-.081-.811-.263-1.328-.49-1.674a1.322 1.322 0 0 0-.5-.466.89.89 0 0 0-.395-.1l-.007-.002H13.1a7.111 7.111 0 0 1 .16 2.219v.86h-1.484v-.859a7.107 7.107 0 0 1 .159-2.22zm.469 0a6.974 6.974 0 0 0-.17 2.142h1.214a6.972 6.972 0 0 0-.17-2.142zm6.034.024a.382.382 0 0 0-.305.18.372.372 0 0 0 .017.415c.312.429.518.76.642 1.002a1.7 1.7 0 0 1 .14.343 2.58 2.58 0 0 1-.444-.076c-.089-.02-.178-.042-.264-.06a1.557 1.557 0 0 0-.22-.03c-.012-.002-.024-.005-.036-.005h-1.818a.89.89 0 0 0-.396.1c-.252.126-.523.399-.714.883-.192.487-.322 1.191-.322 2.253 0 .275.009.572.028.897a.377.377 0 0 0 .396.353.374.374 0 0 0 .353-.396 14.61 14.61 0 0 1-.027-.854c-.002-1.135.164-1.773.326-2.106v7.03a.58.58 0 1 0 1.16 0v-4.23h.217v4.23a.58.58 0 1 0 1.159 0V11.79l.136.03c.153.032.316.062.487.063a.825.825 0 0 0 .475-.129.603.603 0 0 0 .204-.238.7.7 0 0 0 .063-.301c-.003-.24-.086-.47-.235-.766a8.685 8.685 0 0 0-.705-1.101.376.376 0 0 0-.106-.1.376.376 0 0 0-.211-.055zm-1.04.14a.29.29 0 0 0 .015.579.29.29 0 0 0 0-.579h-.014zm1.265 1.558v.04l.022.005-.022-.045zm-5.823.65a.264.264 0 1 0-.001.527.264.264 0 0 0 0-.526zm-4.494 5.077v.202h2.429v-.202zm10.67 0v.202H24v-.202z"/></svg><svg viewBox="0 0 24 24" id="label" xmlns="http://www.w3.org/2000/svg"><path d="m17.534 6.297-4.83-3.074V.703a.703.703 0 0 0-1.407 0v2.52l-4.83 3.074a.703.703 0 0 0-.326.594v16.406c0 .388.314.703.703.703h10.312a.703.703 0 0 0 .704-.703V6.89a.703.703 0 0 0-.326-.594zM12 11.531a2.346 2.346 0 0 1-2.344-2.344c0-1.047.691-1.936 1.64-2.235v.595a.703.703 0 0 0 1.407 0v-.595c.95.299 1.64 1.188 1.64 2.235A2.346 2.346 0 0 1 12 11.531z"/></svg><svg viewBox="0 0 24 24" id="pinterest" xmlns="http://www.w3.org/2000/svg"><path d="M8.448 23.448C9.6 23.796 10.764 24 12 24A12 12 0 1 0 0 12c0 5.1 3.204 9.48 7.728 11.208-.108-.936-.216-2.484 0-3.552l1.38-5.928s-.348-.696-.348-1.8c0-1.656 1.032-2.892 2.208-2.892 1.032 0 1.512.756 1.512 1.728 0 1.032-.684 2.508-1.032 3.924-.204 1.176.624 2.208 1.824 2.208 2.136 0 3.792-2.28 3.792-5.496 0-2.88-2.064-4.848-5.028-4.848-3.384 0-5.376 2.52-5.376 5.172 0 1.032.336 2.076.888 2.76.108.072.108.168.072.348l-.348 1.308c0 .204-.132.276-.336.132-1.536-.672-2.424-2.856-2.424-4.62 0-3.792 2.688-7.236 7.872-7.236 4.128 0 7.344 2.964 7.344 6.9 0 4.128-2.556 7.44-6.216 7.44-1.164 0-2.304-.624-2.712-1.356l-.804 2.844c-.276 1.032-1.032 2.412-1.548 3.24Z"/></svg><svg viewBox="0 0 24 24" id="play" xmlns="http://www.w3.org/2000/svg"><path d="M6.614.382a2.9 2.9 0 0 0-4.338 2.517V21.1a2.9 2.9 0 0 0 4.338 2.517l15.926-9.102a2.9 2.9 0 0 0 0-5.034Z"/></svg><svg viewBox="0 0 24 24" id="shield" xmlns="http://www.w3.org/2000/svg"><path d="M21.603 4.707a2.039 2.039 0 0 0-.233-.592S18.768 0 12 0C5.234 0 2.63 4.115 2.63 4.115c-.096.15-.2.417-.234.592 0 0-.503 2.669.33 6.494.767 3.516 2.887 8.557 8.644 12.6a1.095 1.095 0 0 0 1.26 0c5.755-4.044 7.877-9.084 8.643-12.6.836-3.825.33-6.494.33-6.494zm-2.548 6.01c-.021.101-.048.206-.073.31H12V21.45c-4.491-3.409-6.28-7.464-6.983-10.423H12V2.27c4.819 0 6.964 2.426 7.39 2.98.07.509.289 2.61-.335 5.467z"/></svg><svg viewBox="0 0 24 24" id="skype" xmlns="http://www.w3.org/2000/svg"><path d="M20 4c2.76 2.72 3.8 6.52 3.147 10.067.546.96.853 2.08.853 3.266A6.667 6.667 0 0 1 17.333 24a6.59 6.59 0 0 1-3.266-.853C10.52 23.8 6.72 22.76 4 20 1.24 17.28.2 13.48.853 9.933A6.59 6.59 0 0 1 0 6.667 6.667 6.667 0 0 1 6.667 0a6.59 6.59 0 0 1 3.266.853C13.48.2 17.28 1.24 20 4Zm-7.947 14.88c3.827 0 5.734-1.84 5.734-4.32 0-1.587-.747-3.28-3.64-3.933l-2.654-.587c-1.013-.227-2.16-.533-2.16-1.48 0-.96.8-1.627 2.267-1.627 2.973 0 2.693 2.04 4.173 2.04.774 0 1.44-.453 1.44-1.24 0-1.826-2.92-3.2-5.4-3.2-2.68 0-5.546 1.147-5.546 4.187 0 1.467.52 3.027 3.4 3.747l3.586.906c1.08.267 1.347.867 1.347 1.427 0 .907-.907 1.8-2.547 1.8-3.213 0-2.773-2.467-4.493-2.467-.773 0-1.333.534-1.333 1.294 0 1.48 1.773 3.453 5.826 3.453Z"/></svg><svg viewBox="0 0 24 24" id="telegram" xmlns="http://www.w3.org/2000/svg"><path d="M12 0C5.376 0 0 5.376 0 12s5.376 12 12 12 12-5.376 12-12S18.624 0 12 0Zm5.568 8.16c-.18 1.896-.96 6.504-1.356 8.628-.168.9-.504 1.2-.816 1.236-.696.06-1.224-.456-1.896-.9-1.056-.696-1.656-1.128-2.676-1.8-1.188-.78-.42-1.212.264-1.908.18-.18 3.252-2.976 3.312-3.228a.24.24 0 0 0-.06-.216c-.072-.06-.168-.036-.252-.024-.108.024-1.788 1.14-5.064 3.348-.48.324-.912.492-1.296.48-.432-.012-1.248-.24-1.86-.444-.756-.24-1.344-.372-1.296-.792.024-.216.324-.432.888-.66 3.504-1.524 5.832-2.532 6.996-3.012 3.336-1.392 4.02-1.632 4.476-1.632.096 0 .324.024.468.144.12.096.156.228.168.324-.012.072.012.288 0 .456z"/></svg><svg viewBox="0 0 24 24" id="vk" xmlns="http://www.w3.org/2000/svg"><path d="M12 0C5.372 0 0 5.372 0 12c0 6.627 5.372 12 12 12 6.627 0 12-5.373 12-12 0-6.628-5.373-12-12-12Zm4.615 13.539s1.061 1.047 1.322 1.533c.008.01.012.02.014.025.106.179.131.318.079.422-.087.172-.387.257-.49.264h-1.875c-.13 0-.403-.033-.733-.26-.253-.178-.503-.47-.747-.753-.364-.423-.679-.788-.996-.788-.04 0-.08.007-.119.019-.24.078-.548.42-.548 1.332 0 .285-.225.45-.383.45h-.859c-.293 0-1.816-.103-3.166-1.527-1.653-1.744-3.14-5.241-3.153-5.274-.094-.226.1-.347.311-.347h1.894c.253 0 .335.154.393.29.067.159.315.79.721 1.5.659 1.157 1.062 1.627 1.386 1.627.06 0 .12-.016.174-.045.423-.235.344-1.741.325-2.053 0-.06-.001-.674-.217-.97-.156-.213-.42-.294-.58-.324a.687.687 0 0 1 .25-.211c.29-.145.812-.167 1.33-.167h.29c.562.008.707.044.91.095.413.099.422.365.386 1.277-.012.258-.023.55-.023.896 0 .075-.004.155-.004.24-.012.463-.027.99.3 1.206a.27.27 0 0 0 .143.041c.114 0 .456 0 1.384-1.591.286-.512.534-1.044.743-1.592.02-.033.074-.133.14-.172a.332.332 0 0 1 .154-.036h2.226c.243 0 .41.036.44.13.055.149-.01.602-1.026 1.979l-.454.599c-.92 1.207-.92 1.268.058 2.185z"/></svg></svg>