<?xml version="1.0" encoding="UTF-8" standalone="no"?>
<svg
   width="24"
   height="24"
   viewBox="0 0 24 24"
   version="1.1"
   xmlns="http://www.w3.org/2000/svg"
   xmlns:svg="http://www.w3.org/2000/svg">
  <path
     d="M 18.717167,11.06352 8.036694,0.383412 C 7.789682,0.136194 7.459917,0 7.108307,0 6.756694,0 6.426937,0.136194 6.179911,0.383412 L 5.393368,1.1697456 c -0.5118076,0.512388 -0.5118076,1.3451664 0,1.8567744 l 8.968645,8.968512 -8.978595,8.978448 C 5.136391,21.220704 5,21.550272 5,21.90168 c 0,0.351792 0.136391,0.68136 0.383418,0.928776 l 0.786542,0.78612 C 6.417181,23.8638 6.746744,24 7.098356,24 7.449957,24 7.779722,23.8638 8.026758,23.616576 L 18.717167,12.926712 c 0.247612,-0.247992 0.383622,-0.579096 0.38283,-0.931104 7.92e-4,-0.353352 -0.135218,-0.684288 -0.38283,-0.932088 z" />
</svg>
