<?xml version="1.0" encoding="UTF-8" standalone="no"?>
<svg
   width="24"
   height="24"
   viewBox="0 0 24 24"
   version="1.1"
   xmlns="http://www.w3.org/2000/svg"
   xmlns:svg="http://www.w3.org/2000/svg">
  <path
     d="M 6.75,0 C 6.3300004,0 6,0.33000041 6,0.75 V 1.5 H 2.25 C 1.0050012,1.5 0,2.5050012 0,3.75 v 4.5 13.5 C 0,22.995065 1.0050012,24 2.25,24 h 19.5 C 22.995065,24 24,22.995065 24,21.75 V 8.25 3.75 C 24,2.5050012 22.995065,1.5 21.75,1.5 H 18 V 0.75 C 18,0.33000041 17.67,0 17.25,0 16.83,0 16.5,0.33000041 16.5,0.75 V 1.5 h -9 V 0.75 C 7.5,0.33000041 7.1699996,0 6.75,0 Z M 2.25,3 H 6 V 5.25 C 6,5.6699996 6.3300004,6 6.75,6 7.1699996,6 7.5,5.6699996 7.5,5.25 V 3 h 9 V 5.25 C 16.5,5.6699996 16.83,6 17.25,6 17.67,6 18,5.6699996 18,5.25 V 3 h 3.75 c 0.42,0 0.75,0.3300004 0.75,0.75 V 7.5 H 1.5 V 3.75 C 1.5,3.3300004 1.8300004,3 2.25,3 Z M 1.5,9 h 21 v 12.75 c 0,0.42 -0.33,0.75 -0.75,0.75 H 2.25 C 1.8300004,22.5 1.5,22.17 1.5,21.75 Z" />
</svg>
