<?xml version="1.0" encoding="UTF-8" standalone="no"?>
<svg
   width="24"
   height="24"
   viewBox="0 0 24 24"
   version="1.1"
   xmlns="http://www.w3.org/2000/svg"
   xmlns:svg="http://www.w3.org/2000/svg">
  <path
     d="M 0.7617182,0.9885 V 5.1798228 C 0.64622634,5.2018024 0.53799289,5.2549206 0.45052032,5.3334657 0.36304841,5.4120107 0.29855504,5.5126622 0.26432241,5.6251265 0.08747059,6.2080876 6.4465132e-4,6.7057383 -4.9853837e-7,7.1498358 -3.2307367e-4,7.5565875 0.07761666,7.9260334 0.24479116,8.2409599 c 0.2501564,0.4789898 0.6932325,0.7658534 1.11588534,0.8971171 0.4278196,0.136598 0.8589387,0.160056 1.265625,0.161456 0.02226,0 0.044226,1.33e-4 0.066406,0 0.1668531,-0.0015 0.3298617,-0.0069 0.4843749,-0.01302 v 3.298111 9.4295 c 0,0.550789 0.4469231,0.997376 0.9973959,0.997376 0.5506393,0 0.9960937,-0.446587 0.9960937,-0.997376 V 14.73432 h 0.3736978 v 7.279803 c 0,0.550789 0.4469231,0.997376 0.9973958,0.997376 0.5506263,0 0.9973963,-0.446587 0.9973963,-0.997376 V 9.921916 c 0.0538,0.111331 0.1014293,0.224808 0.1432293,0.341139 0.227266,0.630054 0.4186353,1.663779 0.4179686,3.277279 0,0.444657 -0.01444,0.9335 -0.045573,1.470023 -0.0208,0.355592 0.2509713,0.659976 0.6067713,0.680975 0.1707993,0.0099 0.3383453,-0.04773 0.4661453,-0.161455 0.1278,-0.11373 0.204844,-0.273205 0.214844,-0.444002 0.0326,-0.559188 0.04818,-1.073218 0.04818,-1.545541 C 9.3873604,11.106251 8.9988178,9.759329 8.4687518,8.9492791 8.2037518,8.5471544 7.8943412,8.2900089 7.6080745,8.1472117 7.3306085,8.0073478 7.0865412,7.9755044 6.9414079,7.9740385 c -0.00827,-3.333e-4 -0.017507,-0.00133 -0.02604,-0.00133 H 6.5377596 L 6.3385409,9.523486 5.5533847,8.5755885 6.0963534,7.9727358 H 4.619791 L 5.1627597,8.5755885 4.3763014,9.523486 4.1783847,7.9727358 H 3.8007806 c -0.024113,0 -0.048228,0.00247 -0.071615,0.0052 -0.2856397,0.00387 -0.5790148,0.01968 -0.8632812,0.027339 -0.080487,0.00213 -0.1611967,0.004 -0.2395833,0.00393 C 2.1658282,8.014005 1.7673501,7.9495263 1.5820303,7.8347291 1.4861441,7.7778004 1.433714,7.7251827 1.384114,7.6355179 1.336214,7.5451864 1.2906907,7.3987786 1.290364,7.1498504 1.289884,6.8810548 1.3480662,6.499144 1.4999994,6.0014211 1.5497727,5.8377313 1.5323556,5.6615024 1.4518224,5.5105455 1.3712958,5.3595886 1.2339918,5.2465686 1.070312,5.1967497 1.065962,5.1953797 1.061642,5.1940597 1.057291,5.1928398 V 3.5118873 C 1.2334976,3.2291531 1.6833569,2.7246797 2.4687494,3.1928833 4.5966938,4.4613034 4.7265618,1.4989065 4.7265618,1.4989065 c 0,0 -1.1154358,0.6190094 -1.9218749,-0.1067687 C 2.1221209,0.7778853 1.2952708,1.1260006 1.0572911,1.2476094 V 0.9885 Z m 4.596354,2.8957757 c -1.0020789,0 -1.8151041,0.812849 -1.8151041,1.8150681 0,0.9012545 0.6582521,1.6489985 1.5195312,1.790329 0.096367,0.015867 0.194773,0.02344 0.2955729,0.02344 0.1008065,0 0.1992797,-0.00751 0.2955729,-0.02344 0.8614325,-0.1413305 1.5182288,-0.8890745 1.5182288,-1.790329 0,-1.0022191 -0.8115627,-1.8150681 -1.8138017,-1.8150681 z M 20.680988,5.0548253 c -0.582399,0 -1.054687,0.4722521 -1.054687,1.0546666 0,0.5824145 0.472288,1.0546665 1.054687,1.0546665 0.582467,0 1.054688,-0.472252 1.054688,-1.0546665 0,-0.5824145 -0.472221,-1.0546666 -1.054688,-1.0546666 z m -8.16276,1.7382467 c -0.582399,0 -1.054688,0.4722453 -1.054688,1.0546663 0,0.5823884 0.472289,1.054667 1.054688,1.054667 0.582466,0 1.054688,-0.4722786 1.054688,-1.054667 0,-0.582421 -0.472222,-1.0546663 -1.054688,-1.0546663 z m 7.257812,0.6380079 c -0.0021,0 -0.0045,0.00133 -0.0065,0.00133 -0.03393,1.327e-4 -0.06796,0.0018 -0.101563,0.00653 0.104067,0.1856629 0.318067,0.5556269 0.625,1.0234169 0.405,0.6175872 0.971317,1.4046942 1.65625,2.1588112 V 8.5639241 c 0.0278,0.056932 0.05567,0.1215808 0.08333,0.1979127 0.132067,0.3661932 0.242588,0.9673292 0.242188,1.9049102 0,0.258462 -0.0078,0.542422 -0.02604,0.85415 -0.003,0.05107 0.0047,0.102973 0.02213,0.151038 0.01753,0.04807 0.04436,0.09171 0.07943,0.128905 0.03513,0.0372 0.07807,0.06704 0.125,0.08724 0.04693,0.0202 0.0973,0.03001 0.148438,0.02995 0.0956,-1.34e-4 0.186977,-0.0372 0.25651,-0.102863 0.06953,-0.0656 0.111588,-0.154597 0.117188,-0.249995 0.01787,-0.298993 0.02675,-0.598892 0.02735,-0.898419 C 23.022851,9.252249 22.797862,8.4696269 22.489595,7.998837 22.335729,7.7653083 22.154693,7.615832 21.988293,7.5327002 21.822093,7.4491022 21.676762,7.4321089 21.593762,7.4324422 h -0.0013 c -0.0018,-6.66e-5 -0.0033,-0.00133 -0.0052,-0.00133 z m -0.270833,0.046872 c -0.0416,0.013867 -0.08604,0.031752 -0.13151,0.054686 -0.252067,0.1249309 -0.523342,0.3981387 -0.713542,0.8827951 -0.08,0.2020627 -0.149725,0.4418245 -0.203125,0.729152 0.04007,0.03067 0.07554,0.06741 0.105469,0.108071 0.221,0.303927 0.399533,0.570849 0.541666,0.808578 0.04593,-0.764051 0.17903,-1.2307405 0.309896,-1.4986686 v 2.1054266 c 0.0682,0.172664 0.117125,0.3545 0.119792,0.545562 2e-4,0.135597 -0.02643,0.259156 -0.07943,0.371087 -0.0116,0.02507 -0.0257,0.04911 -0.04037,0.07292 v 3.934817 c 0,0.153731 0.06061,0.301417 0.169271,0.410148 0.108733,0.108665 0.256423,0.169268 0.410156,0.169268 0.153667,0 0.30149,-0.06061 0.410157,-0.169268 0.108666,-0.108731 0.16927,-0.256417 0.16927,-0.410148 V 11.36069 h 0.217448 v 4.231686 c 0,0.153731 0.06061,0.301484 0.169271,0.410148 0.108667,0.108665 0.256423,0.169268 0.410157,0.169268 0.153666,0 0.301489,-0.06061 0.410156,-0.169268 0.108666,-0.108664 0.16927,-0.256417 0.16927,-0.410148 V 10.859394 C 20.627085,9.439561 19.723673,7.8722792 19.505207,7.4779543 Z m -2.766927,1.108051 c -0.582399,0 -1.053385,0.4722791 -1.053385,1.0546671 0,0.582521 0.470986,1.054666 1.053385,1.054666 0.392599,0 0.735133,-0.215583 0.916667,-0.533843 H 16.191405 V 9.083391 h 0.0013 1.440105 C 17.446576,8.7848637 17.116244,8.5860049 16.738311,8.5860049 Z M 11.611978,9.169325 c -0.0021,0 -0.0045,0.0013 -0.0065,0.0013 -0.083,-3.34e-4 -0.2297,0.01633 -0.395833,0.100258 -0.2522,0.124931 -0.523342,0.398272 -0.713542,0.882796 -0.192533,0.486523 -0.32225,1.189213 -0.322916,2.251257 2e-4,0.274527 0.0094,0.573293 0.02865,0.89842 0.0056,0.0954 0.04772,0.184396 0.117188,0.249995 0.06953,0.0656 0.160977,0.102729 0.25651,0.102862 0.0075,0 0.0146,3.34e-4 0.02213,0 0.09927,-0.0058 0.193048,-0.05197 0.259114,-0.1263 0.06607,-0.07427 0.09955,-0.171562 0.09375,-0.270827 -0.01733,-0.284395 -0.02687,-0.569223 -0.02735,-0.85415 -0.0017,-1.135243 0.164089,-1.771532 0.326822,-2.104125 v 7.029809 c 0,0.15373 0.06191,0.301483 0.170573,0.410148 0.108667,0.108663 0.255121,0.169266 0.408855,0.169266 0.153666,0 0.301489,-0.06061 0.410156,-0.169266 0.108733,-0.108665 0.16927,-0.256418 0.16927,-0.410148 v -4.231687 h 0.217448 v 4.231687 c 0,0.15373 0.06061,0.301416 0.169271,0.410148 0.108733,0.108663 0.256423,0.169266 0.410157,0.169266 0.153733,0 0.301489,-0.06061 0.410156,-0.169266 0.108733,-0.108732 0.16927,-0.256418 0.16927,-0.410148 v -7.028533 c 0.02773,0.05687 0.0558,0.121781 0.08333,0.197913 0.1322,0.366392 0.243823,0.967062 0.24349,1.90491 0,0.25826 -0.008,0.542356 -0.02604,0.85415 -0.0079,0.136597 0.05866,0.258923 0.164062,0.330722 0.03753,-0.698652 0.142176,-1.259101 0.317708,-1.703091 0.07453,-0.190663 0.158996,-0.347054 0.247396,-0.475251 -0.08133,-0.811717 -0.262983,-1.327987 -0.489583,-1.674446 -0.153867,-0.233529 -0.333667,-0.383138 -0.5,-0.466137 -0.166333,-0.0838 -0.3127,-0.100592 -0.395833,-0.100258 -0.0022,0 -0.0043,-0.0013 -0.0065,-0.0013 h -0.322916 c 0.147266,0.62152 0.186198,1.194106 0.186198,1.622364 0,0.25786 -0.01364,0.463344 -0.02604,0.596342 v 0.86066 h -1.484376 v -0.859358 c -0.01807,-0.198596 -0.02775,-0.398248 -0.02735,-0.597644 0,-0.428325 0.03887,-1.000844 0.186198,-1.622364 z m 0.46875,0 c -0.150466,0.62032 -0.191406,1.195039 -0.191406,1.622364 0,0.214995 0.01037,0.39179 0.02083,0.51952 h 1.214844 c 0.01033,-0.12773 0.02083,-0.304525 0.02083,-0.51952 0,-0.427458 -0.04094,-1.002177 -0.191406,-1.622364 z m 6.033854,0.02344 c -0.02449,0.001 -0.04898,0.0047 -0.07292,0.01042 -0.04787,0.01153 -0.09301,0.0322 -0.132812,0.0612 -0.0398,0.02893 -0.07329,0.06607 -0.09896,0.108071 -0.02573,0.042 -0.04311,0.08805 -0.05078,0.136716 -0.0077,0.0486 -0.0063,0.09797 0.0052,0.145831 0.01153,0.04787 0.03357,0.09301 0.0625,0.132809 0.312266,0.428991 0.518594,0.760989 0.641927,1.002585 0.07907,0.151197 0.121425,0.268709 0.140625,0.342441 -0.1066,-0.0029 -0.27841,-0.03625 -0.44401,-0.07552 -0.08927,-0.02067 -0.177857,-0.04209 -0.264324,-0.05989 -0.07273,-0.01453 -0.141452,-0.02658 -0.220052,-0.03125 -0.01227,-0.0013 -0.02393,-0.0039 -0.03646,-0.0039 h -1.811189 -0.0065 c -0.0832,-2.67e-4 -0.229567,0.01646 -0.395833,0.100259 -0.252066,0.125064 -0.523275,0.398338 -0.713542,0.882795 -0.1924,0.486523 -0.32225,1.190648 -0.322916,2.252559 0,0.274661 0.0095,0.571925 0.02865,0.897117 0.0058,0.09927 0.05067,0.193044 0.125,0.25911 0.07427,0.06607 0.171567,0.09955 0.270834,0.09375 0.09927,-0.0058 0.191745,-0.05073 0.257812,-0.124997 0.06613,-0.07433 0.100852,-0.171564 0.09505,-0.270828 -0.0172,-0.284461 -0.02681,-0.569223 -0.02735,-0.85415 -0.0016,-1.13511 0.164356,-1.772634 0.326823,-2.105427 v 7.029808 c 0,0.320194 0.259427,0.579416 0.579427,0.579416 0.319999,0 0.579426,-0.259222 0.579426,-0.579416 V 14.89189 h 0.217448 v 4.230384 c 0,0.153664 0.06061,0.301484 0.169272,0.410148 0.108666,0.108732 0.256422,0.169268 0.410156,0.169268 0.07613,6.7e-5 0.15102,-0.01514 0.221354,-0.04427 0.07033,-0.02907 0.135002,-0.0712 0.188802,-0.124998 0.0538,-0.0538 0.09587,-0.117165 0.125,-0.187496 0.02913,-0.07033 0.04427,-0.14652 0.04427,-0.222652 v -7.331868 c 0.04427,0.01027 0.08952,0.01988 0.136719,0.02995 0.152333,0.03173 0.315446,0.0617 0.486978,0.0625 0.143867,-0.002 0.307128,-0.01704 0.475261,-0.128905 0.08747,-0.06013 0.157592,-0.142412 0.203125,-0.238276 0.04613,-0.09767 0.06393,-0.201644 0.0638,-0.300775 -0.0033,-0.240462 -0.08674,-0.46935 -0.235677,-0.76561 -0.151067,-0.29466 -0.377627,-0.652016 -0.704427,-1.101541 -0.02893,-0.0398 -0.06477,-0.07452 -0.106771,-0.100258 -0.042,-0.02573 -0.08935,-0.04181 -0.138021,-0.04948 -0.02433,-0.0039 -0.04843,-0.0062 -0.07292,-0.0052 z m -1.039063,0.140622 c -0.15275,0.0077 -0.274739,0.134447 -0.274739,0.289057 0,0.159663 0.129396,0.289057 0.289063,0.289057 0.159599,0 0.289062,-0.129394 0.289062,-0.289057 0,-0.159597 -0.129463,-0.289057 -0.289062,-0.289057 -0.005,0 -0.0094,-2.5e-4 -0.01432,0 z m 1.264324,1.557262 v 0.04037 l 0.02213,0.0052 c -0.0073,-0.01493 -0.0146,-0.03077 -0.02213,-0.04557 z m -5.822917,0.651028 c -0.1456,0 -0.264323,0.11872 -0.264323,0.264317 0,0.145598 0.118723,0.263016 0.264323,0.263016 0.145533,0 0.263021,-0.117418 0.263021,-0.263016 0,-0.145597 -0.117488,-0.264317 -0.263021,-0.264317 z m -4.4934895,5.076721 v 0.20182 h 2.4283855 v -0.20182 z m 10.6692705,0 v 0.20182 h 5.307292 v -0.20182 z" />
</svg>
