<?xml version="1.0" encoding="UTF-8" standalone="no"?>
<svg
   width="24"
   height="24"
   viewBox="0 0 24 24"
   version="1.1"
   xmlns="http://www.w3.org/2000/svg"
   xmlns:svg="http://www.w3.org/2000/svg">
  <path
     d="M 17.533827,6.29742 12.703134,3.2234067 V 0.70312667 C 12.703134,0.31481267 12.388308,0 11.999987,0 11.611666,0 11.296847,0.31481267 11.296847,0.70312667 V 3.2234067 L 6.466147,6.29742 C 6.366353,6.3609267 6.284193,6.4485867 6.22727,6.5522733 6.170349,6.6559667 6.140504,6.7723333 6.1405,6.8906 V 23.296867 C 6.1405,23.6852 6.455318,24 6.843635,24 H 17.156352 C 17.544627,24 17.8595,23.6852 17.8595,23.296867 V 6.8906 c 0,-0.2403467 -0.122869,-0.4640867 -0.325673,-0.59318 z m -5.53384,5.233847 c -1.292371,0 -2.343792,-1.0514 -2.343792,-2.3438003 0,-1.0474667 0.69076,-1.9364667 1.640652,-2.2358 v 0.5952 c 0,0.3883333 0.314819,0.7031333 0.70314,0.7031333 0.388321,0 0.703147,-0.3148 0.703147,-0.7031333 v -0.5952 C 13.653019,7.251 14.343765,8.14 14.343765,9.1874667 c 0,1.2924003 -1.05142,2.3438003 -2.343778,2.3438003 z" />
</svg>
