<?xml version="1.0" encoding="UTF-8" standalone="no"?>
<svg
   width="24"
   height="24"
   viewBox="0 0 24 24"
   version="1.1"
   xmlns="http://www.w3.org/2000/svg"
   xmlns:svg="http://www.w3.org/2000/svg">
  <path
     d="m 8.4479774,23.448051 c 1.1520016,0.34803 2.3160636,0.551971 3.5520356,0.551971 3.182584,0 6.234849,-1.264232 8.485302,-3.514685 C 22.735768,18.234883 24,15.182619 24,12.000034 24,10.424132 23.68968,8.8637097 23.086589,7.4078135 22.483498,5.9518994 21.599607,4.6290325 20.485315,3.5147229 19.371023,2.4004223 18.048111,1.516504 16.592269,0.9134491 15.136337,0.31039425 13.575915,0 12.000013,0 10.42411,0 8.8636881,0.31039425 7.4078099,0.9134491 5.9519048,1.516504 4.6290289,2.4004223 3.5147283,3.5147229 1.264284,5.7651672 0,8.8174496 0,12.000034 c 0,5.100038 3.2040028,9.479984 7.7280124,11.207986 -0.1080002,-0.936001 -0.2160003,-2.484003 0,-3.551945 l 1.380026,-5.928038 c 0,0 -0.3480305,-0.695971 -0.3480305,-1.800003 0,-1.656002 1.0320311,-2.8920641 2.2079731,-2.8920641 1.032032,0 1.512002,0.7560911 1.512002,1.7280921 0,1.031942 -0.684001,2.507944 -1.031941,3.924006 -0.20403,1.175942 0.623971,2.207973 1.823942,2.207973 2.136064,0 3.792066,-2.279973 3.792066,-5.496038 0,-2.8800038 -2.064063,-4.8479917 -5.028037,-4.8479917 -3.3840053,0 -5.3760051,2.5200487 -5.3760051,5.1719927 0,1.032031 0.3360064,2.076033 0.8880042,2.760034 0.1080002,0.072 0.1080002,0.16803 0.072,0.34803 L 7.2720086,16.14004 c 0,0.20403 -0.1319941,0.276031 -0.3359974,0.13203 -1.5360053,-0.672031 -2.4240006,-2.856064 -2.4240006,-4.620066 0,-3.7919938 2.6879979,-7.2359928 7.8720324,-7.2359928 4.127946,0 7.344011,2.9640013 7.344011,6.9000218 0,4.128036 -2.556004,7.440041 -6.216039,7.440041 -1.163972,0 -2.304004,-0.624061 -2.711974,-1.356032 L 9.99598,20.244046 C 9.720039,21.276078 8.9640381,22.65605 8.4479773,23.484051 Z" />
</svg>
