<?xml version="1.0" encoding="UTF-8" standalone="no"?>
<svg
   width="24"
   height="24"
   viewBox="0 0 24 24"
   version="1.1"
   xmlns="http://www.w3.org/2000/svg"
   xmlns:svg="http://www.w3.org/2000/svg">
  <path
     d="M 6.6142197,0.38184501 C 6.173233,0.13003501 5.6738799,-0.00172299 5.1659848,1.7012967e-5 4.6582487,0.00171701 4.1598446,0.13683601 3.7205969,0.39165201 3.2813492,0.64646801 2.9167599,1.012162 2.6632084,1.452198 2.4096568,1.892233 2.276158,2.391109 2.276,2.898842 v 18.202316 c 1.58e-4,0.507734 0.1336568,1.006609 0.3872084,1.446645 0.2535515,0.440035 0.6181408,0.80573 1.0573885,1.060545 0.4392477,0.254974 0.9376518,0.389895 1.4453879,0.391635 0.5078951,0.0017 1.0072482,-0.129859 1.4482349,-0.381828 L 22.54006,14.515652 c 0.443518,-0.253708 0.81222,-0.620193 1.068619,-1.062127 C 23.86492,13.011433 24,12.509552 24,11.998498 24,11.487601 23.86492,10.98572 23.608679,10.543628 23.35228,10.101695 22.983578,9.735209 22.54006,9.481501 Z" />
</svg>
