<?xml version="1.0" encoding="UTF-8" standalone="no"?>
<svg
   width="24"
   height="24"
   viewBox="0 0 24 24"
   version="1.1"
   xmlns="http://www.w3.org/2000/svg"
   xmlns:svg="http://www.w3.org/2000/svg">
  <path
     d="M 21.602798,4.707439 C 21.55653,4.4989367 21.477863,4.2990011 21.369527,4.1149324 21.369527,4.1149324 18.767684,0 11.999705,0 5.2337937,0 2.629962,4.1149324 2.629962,4.1149324 2.5341365,4.2659474 2.4292814,4.5323437 2.3961688,4.707439 c 0,0 -0.5032063,2.6685096 0.3296168,6.493485 0.7671061,3.51644 2.8872944,8.556962 8.6438434,12.59914 C 11.554165,23.930133 11.774435,24 12.000239,24 c 0.225804,0 0.446074,-0.06987 0.630611,-0.199936 5.754561,-4.042644 7.87573,-9.0827 8.642343,-12.59914 0.835346,-3.8249754 0.329605,-6.493485 0.329605,-6.493485 z m -2.547642,6.00988 c -0.02153,0.100801 -0.04813,0.206136 -0.07327,0.309537 h -6.98218 V 21.449638 C 7.5085047,18.041067 5.7194418,13.986355 5.0170569,11.026856 H 11.999705 V 2.2701852 c 4.818881,0 6.964649,2.4262203 7.390123,2.9790865 0.0702,0.5097256 0.288938,2.6108156 -0.334672,5.4680473 z" />
</svg>
