<?xml version="1.0" encoding="UTF-8" standalone="no"?>
<svg
   width="24"
   height="24"
   viewBox="0 0 24 24"
   version="1.1"
   xmlns="http://www.w3.org/2000/svg"
   xmlns:svg="http://www.w3.org/2000/svg">
  <path
     d="M 12.00002,0 C 5.3760052,0 0,5.3760034 0,12.000027 0,18.624033 5.3760052,24.000007 12.00002,24.000007 18.624025,24.000007 24,18.624033 24,12.000027 24,5.3760034 18.624025,0 12.00002,0 Z m 5.568035,8.1600117 c -0.180001,1.8960133 -0.960031,6.5040173 -1.356032,8.6280193 -0.16803,0.900001 -0.504,1.199971 -0.81603,1.235971 -0.695971,0.06003 -1.224001,-0.45594 -1.895942,-0.900001 C 12.44399,16.428031 11.84405,15.99603 10.823989,15.324 c -1.188001,-0.779941 -0.419941,-1.211941 0.26406,-1.908002 0.18,-0.18 3.251973,-2.975942 3.312003,-3.228033 0.0083,-0.03816 0.0072,-0.07776 -0.0032,-0.11538 -0.01044,-0.03762 -0.02997,-0.07218 -0.05679,-0.10053 -0.072,-0.06003 -0.16803,-0.03609 -0.252,-0.02403 -0.108001,0.02394 -1.788032,1.140031 -5.0640347,3.348003 -0.4799704,0.324 -0.9119798,0.492031 -1.2959831,0.479971 -0.4320004,-0.01197 -1.2479951,-0.239941 -1.8599956,-0.443971 -0.7560007,-0.24003 -1.3440072,-0.37197 -1.2960011,-0.792001 0.023994,-0.216 0.3240003,-0.432 0.8879947,-0.65997 3.504045,-1.524061 5.8319868,-2.532062 6.9960478,-3.0120327 3.335943,-1.3920131 4.019944,-1.6320163 4.475974,-1.6320163 0.09603,0 0.324,0.024003 0.468,0.1440001 0.11997,0.096003 0.155971,0.2279972 0.168031,0.3240002 -0.01206,0.072 0.01197,0.2880003 0,0.4560034 z" />
</svg>
