<?xml version="1.0" encoding="UTF-8" standalone="no"?>
<svg
   width="24"
   height="24"
   viewBox="0 0 24 24"
   version="1.1"
   xmlns="http://www.w3.org/2000/svg"
   xmlns:svg="http://www.w3.org/2000/svg">
  <path
     d="m 12,-2.44141e-4 c -6.627503,0 -12,5.372500741 -12,12.000040141 0,6.627485 5.372497,12 12,12 6.627485,0 12,-5.372515 12,-12 C 24,5.3722566 18.627485,-2.44141e-4 12,-2.44141e-4 Z M 16.61497,13.538508 c 0,0 1.061317,1.047485 1.322515,1.533773 0.0075,0.01 0.01123,0.01994 0.01374,0.02497 0.106257,0.178742 0.131227,0.317515 0.07877,0.421257 -0.08749,0.172455 -0.387485,0.257515 -0.48997,0.26497 h -1.875 c -0.13006,0 -0.402575,-0.03368 -0.732575,-0.261197 -0.253742,-0.177485 -0.503712,-0.468773 -0.747485,-0.752515 -0.363683,-0.422515 -0.678683,-0.787545 -0.996198,-0.787545 -0.04033,0 -0.08039,0.0063 -0.118742,0.01877 -0.24,0.07752 -0.547545,0.42 -0.547545,1.332485 0,0.285 -0.225,0.448743 -0.383713,0.448743 H 11.28 c -0.292545,0 -1.8162575,-0.102485 -3.1662485,-1.526228 C 6.4612455,12.512221 4.9737485,9.0147955 4.9612455,8.9822805 4.8675,8.7560051 5.0612515,8.6347566 5.2725,8.6347566 h 1.8937455 c 0.252503,0 0.335003,0.1537455 0.392506,0.289994 0.0675,0.1587575 0.315,0.790015 0.7212485,1.5000454 0.6587515,1.157425 1.062485,1.627455 1.3862874,1.627455 0.060629,-7.19e-4 0.1202695,-0.01617 0.1737126,-0.045 0.422515,-0.23497 0.343743,-1.741258 0.32497,-2.0537429 0,-0.058743 -0.0013,-0.6737425 -0.217455,-0.9687126 C 9.792485,8.7710051 9.5287725,8.6897536 9.3687126,8.6597536 9.4334731,8.5703913 9.5188024,8.4979332 9.617515,8.4485051 9.9074551,8.3035081 10.43003,8.2822566 10.948743,8.2822566 h 0.288772 c 0.562455,0.0075 0.707515,0.043751 0.911228,0.094994 0.412544,0.098757 0.421257,0.365003 0.38497,1.2762575 -0.01123,0.2587724 -0.02246,0.5512279 -0.02246,0.8962279 0,0.075 -0.0038,0.15503 -0.0038,0.24 -0.01249,0.463742 -0.02749,0.99 0.3,1.206287 0.04275,0.02677 0.09207,0.04105 0.142545,0.04123 0.113713,0 0.456198,0 1.383683,-1.591258 0.286077,-0.5121556 0.53461,-1.044431 0.743802,-1.5924879 0.01877,-0.032497 0.07374,-0.132503 0.138772,-0.1712515 0.04796,-0.024458 0.101138,-0.036898 0.154941,-0.036251 h 2.226287 c 0.242515,0 0.408772,0.036251 0.43994,0.130006 0.05506,0.1487425 -0.01,0.60247 -1.026198,1.9787884 l -0.453772,0.598741 c -0.921198,1.207455 -0.921198,1.268713 0.05748,2.18497 z" />
</svg>
